<svg width="34" height="33" viewBox="0 0 34 33" fill="none" xmlns="http://www.w3.org/2000/svg">
<ellipse cx="17.2999" cy="16.8699" rx="16.5333" ry="16.1301" fill="#FFFDF9"/>
<path d="M26.6 22.3586C26.6 22.7746 26.4219 23.1734 26.1047 23.4675C25.7876 23.7616 25.3575 23.9268 24.9091 23.9268H9.69091C9.24245 23.9268 8.81236 23.7616 8.49526 23.4675C8.17815 23.1734 8 22.7746 8 22.3586V13.7335C8 13.3176 8.17815 12.9187 8.49526 12.6246C8.81236 12.3305 9.24245 12.1653 9.69091 12.1653H13.0727L14.7636 9.81302H19.8364L21.5273 12.1653H24.9091C25.3575 12.1653 25.7876 12.3305 26.1047 12.6246C26.4219 12.9187 26.6 13.3176 26.6 13.7335V22.3586Z" stroke="black" stroke-linecap="round" stroke-linejoin="round"/>
<path d="M17.3 20.9024C19.012 20.9024 20.4 19.5484 20.4 17.8781C20.4 16.2077 19.012 14.8537 17.3 14.8537C15.5879 14.8537 14.2 16.2077 14.2 17.8781C14.2 19.5484 15.5879 20.9024 17.3 20.9024Z" stroke="black" stroke-linecap="round" stroke-linejoin="round"/>
</svg>
