<svg width="180" height="180" viewBox="0 0 180 180" fill="none" xmlns="http://www.w3.org/2000/svg">
<path d="M179.967 3.39717C179.94 3.18973 179.908 2.99012 179.846 2.7866C179.779 2.56351 179.689 2.35999 179.587 2.15255C179.533 2.03905 179.513 1.91772 179.446 1.80813C179.403 1.73768 179.333 1.69071 179.282 1.62417C179.153 1.44414 179 1.28758 178.84 1.12711C178.679 0.96664 178.519 0.817912 178.335 0.688754C178.268 0.641787 178.225 0.575251 178.159 0.536112C178.049 0.469576 177.928 0.45392 177.814 0.399126C177.599 0.29345 177.388 0.203431 177.161 0.136895C176.969 0.086014 176.781 0.0586168 176.585 0.0351334C176.354 0.00773615 176.131 -0.00791942 175.9 0.00382226C175.685 0.0155639 175.478 0.0586168 175.266 0.109497C175.133 0.140809 174.996 0.129067 174.863 0.176034L2.65195 58.8844C1.09422 59.4089 0.0335504 60.861 0.00223922 62.5087C-0.0290719 64.1565 0.972885 65.6477 2.51496 66.2387L82.9729 97.1545L117.74 177.64C118.362 179.076 119.779 180 121.333 180C121.399 180 121.462 180 121.529 179.996C123.161 179.914 124.566 178.83 125.063 177.276L179.857 5.06449C179.897 4.94316 179.885 4.81791 179.908 4.69267C179.955 4.47349 179.99 4.26214 179.998 4.03905C180.006 3.81987 179.994 3.61243 179.967 3.39717ZM15.3995 62.8023L161.454 13.0097L84.9416 89.5224L15.3995 62.8023ZM120.773 164.927L90.558 94.9784L167.517 18.0156L120.773 164.927Z" fill="#FAC55C"/>
<path d="M61.477 118.524C59.9467 116.994 57.4731 116.994 55.9427 118.524L1.14824 173.319C-0.382095 174.849 -0.382095 177.323 1.14824 178.853C1.91145 179.616 2.9134 180 3.91536 180C4.91732 180 5.91927 179.616 6.68248 178.853L61.477 124.059C63.0073 122.528 63.0073 120.055 61.477 118.524Z" fill="#FAC55C"/>
<path d="M71.5983 145.922L44.201 173.319C42.6707 174.849 42.6707 177.323 44.201 178.853C44.9642 179.616 45.9662 180 46.9682 180C47.9701 180 48.9721 179.616 49.7353 178.853L77.1325 151.456C78.6629 149.926 78.6629 147.452 77.1325 145.922C75.6022 144.391 73.1286 144.391 71.5983 145.922Z" fill="#FAC55C"/>
<path d="M3.91536 136.947C4.91732 136.947 5.91927 136.564 6.68248 135.8L34.0797 108.403C35.6101 106.873 35.6101 104.399 34.0797 102.869C32.5494 101.338 30.0758 101.338 28.5455 102.869L1.14824 130.266C-0.382095 131.796 -0.382095 134.27 1.14824 135.8C1.91145 136.564 2.9134 136.947 3.91536 136.947Z" fill="#FAC55C"/>
</svg>
