<svg width="192" height="190" viewBox="0 0 192 190" fill="none" xmlns="http://www.w3.org/2000/svg">
<path d="M91.5791 53.6843V9.4737C91.5791 4.24146 87.3377 0 82.1054 0H9.4737C4.24146 0 0 4.24146 0 9.4737V53.6843C0 58.9166 4.24146 63.158 9.4737 63.158H82.1054C87.3377 63.158 91.5791 58.9166 91.5791 53.6843ZM6.3158 9.4737C6.3158 7.72975 7.72975 6.3158 9.4737 6.3158H82.1054C83.8494 6.3158 85.2633 7.72975 85.2633 9.4737V18.9474H6.3158V9.4737ZM6.3158 53.6843V25.2632H85.2633V53.6843C85.2633 55.4283 83.8494 56.8422 82.1054 56.8422H9.4737C7.72975 56.8422 6.3158 55.4283 6.3158 53.6843Z" fill="#FAC55C"/>
<path d="M72.6317 132.632H44.2106V138.948H72.6317V132.632Z" fill="#FAC55C"/>
<path d="M91.5792 145.264H44.2106V151.579H91.5792V145.264Z" fill="#FAC55C"/>
<path d="M88.4213 120H44.2106V126.316H88.4213V120Z" fill="#FAC55C"/>
<path d="M88.4212 107.369H56.8422V113.684H88.4212V107.369Z" fill="#FAC55C"/>
<path d="M88.4213 94.7371H44.2106V101.053H88.4213V94.7371Z" fill="#FAC55C"/>
<path d="M113.684 82.1055H44.2106V88.4213H113.684V82.1055Z" fill="#FAC55C"/>
<path d="M142.106 69.4739H56.8422V75.7897H142.106V69.4739Z" fill="#FAC55C"/>
<path d="M190.766 157.289L164.489 131.021L156.408 106.781L161.726 101.463C165.456 97.7944 165.505 91.7963 161.836 88.0661C158.167 84.3358 152.169 84.2865 148.439 87.9555C148.402 87.9915 148.366 88.0278 148.33 88.0645L143.009 93.3855L124.766 87.3034C123.971 87.0378 123.103 87.0994 122.353 87.474L95.5581 100.87C94.4824 101.407 93.8051 102.509 93.8118 103.712V121.576C93.8118 123.32 95.2257 124.734 96.9697 124.734H107.211V129.199L94.7371 141.657C94.2953 142.097 93.9953 142.659 93.8749 143.271L91.6423 154.421C91.2914 156.13 92.3915 157.799 94.0999 158.151C94.5184 158.237 94.9502 158.237 95.3686 158.151L106.535 155.918C107.146 155.795 107.707 155.495 108.149 155.056L117.079 146.123L132.711 161.754L159.506 188.549C160.739 189.782 162.738 189.782 163.971 188.549L190.766 161.754C191.998 160.521 191.998 158.522 190.766 157.289ZM152.795 92.5266C154.03 91.2927 156.031 91.2934 157.265 92.5282C158.499 93.7629 158.498 95.7642 157.263 96.9982L134.934 119.328L130.466 114.862L152.795 92.5266ZM100.128 118.402V105.648L124.008 93.7077L138.016 98.3782L126 110.394L123.768 108.161C123.023 107.418 121.957 107.096 120.926 107.299L109.759 109.532C108.288 109.832 107.231 111.128 107.233 112.63V118.402H100.128ZM98.7634 151.03L99.6539 146.574L103.219 150.139L98.7634 151.03ZM108.133 146.123L103.668 141.657L108.136 137.189L112.601 141.657L108.133 146.123ZM113.527 133.649V115.216L120.496 113.823L134.931 128.258C136.165 129.491 138.165 129.491 139.398 128.257C140.631 127.023 140.63 125.023 139.396 123.79L151.415 111.79L158.113 131.871L134.931 155.053L113.527 133.649ZM161.726 181.851L139.396 159.521L161.726 137.189L184.055 159.521L161.726 181.851Z" fill="#FAC55C"/>
<path d="M138.948 183.158H31.579C33.6328 180.428 34.7417 177.102 34.7369 173.685V66.316H28.4211V173.685C28.4211 178.917 24.1797 183.158 18.9474 183.158C17.2035 183.158 15.7895 184.572 15.7895 186.316C15.7895 188.06 17.2035 189.474 18.9474 189.474H138.948C142.796 189.476 146.511 188.072 149.397 185.527L145.213 180.79C143.484 182.318 141.255 183.161 138.948 183.158Z" fill="#FAC55C"/>
<path d="M148.421 15.7895V78.9475H154.737V18.9474H176.842C178.586 18.9474 180 17.5335 180 15.7895C179.99 7.0737 172.927 0.0102632 164.211 0H97.895V6.3158H151.579C149.525 9.04699 148.417 12.3723 148.421 15.7895ZM164.211 6.3158C168.225 6.32054 171.801 8.84923 173.145 12.6316H155.318C156.652 8.85989 160.211 6.33238 164.211 6.3158Z" fill="#FAC55C"/>
<path d="M123.158 167.369H56.8422V173.685H123.158V167.369Z" fill="#FAC55C"/>
<path d="M142.106 15.7896C142.106 14.0457 140.692 12.6317 138.948 12.6317H107.369C105.625 12.6317 104.211 14.0457 104.211 15.7896V47.3686C104.211 49.1126 105.625 50.5265 107.369 50.5265H138.948C140.692 50.5265 142.106 49.1126 142.106 47.3686V15.7896ZM135.79 44.2107H110.527V18.9475H135.79V44.2107Z" fill="#FAC55C"/>
</svg>
