<svg width="190" height="190" viewBox="0 0 190 190" fill="none" xmlns="http://www.w3.org/2000/svg">
<path d="M186.53 23.6106C184.612 20.2447 181.982 17.3375 178.825 15.0917C175.668 12.846 172.059 11.3156 168.249 10.6073L166.201 2.14636C166.115 1.78731 165.958 1.44893 165.74 1.15065C165.522 0.852372 165.247 0.600058 164.931 0.408186C164.616 0.216314 164.265 0.0886618 163.9 0.0325543C163.535 -0.0235533 163.162 -0.00701202 162.803 0.081229L147.088 3.88602C146.365 4.06153 145.741 4.51695 145.354 5.15222C144.966 5.78748 144.847 6.55062 145.021 7.27393L146.519 13.4581L42.245 38.7047C41.5236 38.8817 40.9018 39.3372 40.5156 39.9716C40.1294 40.6059 40.0103 41.3675 40.1844 42.0894L41.1898 46.2405L22.2548 50.8262C21.5315 51.0017 20.9076 51.4571 20.52 52.0924C20.1324 52.7276 20.0129 53.4908 20.1878 54.2141L21.6711 60.3389L2.14594 65.064C1.78772 65.1508 1.45009 65.3072 1.15233 65.5244C0.854574 65.7416 0.602527 66.0153 0.410581 66.3299C0.218636 66.6445 0.0905531 66.9938 0.0336482 67.3579C-0.0232566 67.7221 -0.00786916 68.0938 0.078932 68.452L3.68698 83.3472C3.83504 83.9588 4.18427 84.5028 4.67862 84.8922C5.17296 85.2815 5.78378 85.4935 6.41306 85.4941C6.63619 85.4933 6.85845 85.4664 7.07534 85.414L26.5989 80.6889L28.0774 86.7945C28.2254 87.406 28.5747 87.9501 29.069 88.3394C29.5634 88.7287 30.1742 88.9407 30.8035 88.9414C31.0266 88.9413 31.249 88.9144 31.4657 88.8612L50.4024 84.2788L51.4094 88.4315C51.558 89.0426 51.9075 89.5862 52.4017 89.9751C52.896 90.3641 53.5065 90.576 54.1355 90.5768C54.3587 90.5768 54.581 90.5498 54.7978 90.4966L82.8443 83.7016C83.1813 85.311 83.8354 86.8371 84.7686 88.191L40.0914 179.027C39.5222 180.187 39.2578 181.474 39.3229 182.765C39.388 184.056 39.7806 185.309 40.4636 186.406C41.1467 187.504 42.0978 188.41 43.2275 189.038C44.3571 189.667 45.6282 189.998 46.921 190C48.3433 189.994 49.7357 189.591 50.9424 188.839C52.1492 188.086 53.1226 187.013 53.7538 185.738L87.3953 117.327V182.384C87.3953 184.404 88.1978 186.341 89.6262 187.769C91.0547 189.198 92.9921 190 95.0123 190C97.0324 190 98.9698 189.198 100.398 187.769C101.827 186.341 102.629 184.404 102.629 182.384V117.327L136.271 185.738C136.902 187.014 137.877 188.088 139.085 188.84C140.293 189.593 141.687 189.995 143.11 190C144.272 190.005 145.42 189.737 146.46 189.217C147.358 188.778 148.161 188.166 148.822 187.415C149.484 186.665 149.99 185.792 150.314 184.846C150.637 183.899 150.771 182.898 150.707 181.901C150.643 180.903 150.383 179.927 149.941 179.03L105.266 88.1846C106.293 86.6956 106.98 84.9982 107.277 83.2134C107.573 81.4285 107.473 79.6003 106.981 77.8589L159.067 65.2308L160.568 71.423C160.744 72.1461 161.199 72.77 161.834 73.1576C162.47 73.5451 163.233 73.6646 163.956 73.4897L179.671 69.6833C180.03 69.5968 180.368 69.4405 180.665 69.2234C180.963 69.0062 181.215 68.7325 181.407 68.4178C181.599 68.1032 181.727 67.7538 181.784 67.3896C181.841 67.0254 181.825 66.6536 181.738 66.2954L179.691 57.8393C184.751 53.9057 188.227 48.2826 189.483 41.9979C190.738 35.7131 189.69 29.1864 186.53 23.6106ZM8.48167 79.2987L6.19497 69.8581L22.9908 65.7936L25.2775 75.2342L8.48167 79.2987ZM32.8721 82.7476L31.4096 76.7077C31.4096 76.6852 31.4096 76.6628 31.4 76.6404C31.3904 76.6179 31.3839 76.5971 31.3775 76.5746L27.8 61.8108C27.8 61.79 27.8 61.7707 27.8 61.7515C27.8 61.7323 27.7855 61.7146 27.7807 61.6938L26.3102 55.6266L42.5192 51.7048L49.0938 78.8306L32.8721 82.7476ZM100.711 77.4565C101.567 78.7589 101.948 80.3166 101.789 81.8669C101.63 83.4172 100.941 84.8653 99.839 85.9671L99.8246 85.9848C99.1925 86.6176 98.4419 87.1197 97.6156 87.4622C96.7893 87.8048 95.9035 87.9811 95.009 87.9811C94.1145 87.9811 93.2288 87.8048 92.4025 87.4622C91.5762 87.1197 90.8256 86.6176 90.1935 85.9848L90.1791 85.9671C89.5049 85.2921 88.9802 84.483 88.6389 83.5922C88.2976 82.7015 88.1473 81.7489 88.1977 80.7963C88.2482 79.8438 88.4984 78.9124 88.9319 78.0627C89.3655 77.213 89.9728 76.4639 90.7145 75.8639C91.4563 75.2639 92.3158 74.8265 93.2374 74.58C94.159 74.3335 95.1222 74.2833 96.0644 74.4329C97.0067 74.5824 97.907 74.9283 98.707 75.4481C99.5069 75.9678 100.189 76.6499 100.708 77.4501L100.711 77.4565ZM48.7154 183.264C48.5406 183.619 48.2647 183.914 47.9226 184.112C47.5804 184.31 47.1872 184.402 46.7927 184.377C46.3981 184.351 46.0199 184.21 45.7057 183.97C45.3915 183.73 45.1554 183.402 45.0272 183.029C44.9418 182.781 44.9066 182.518 44.9237 182.257C44.9407 181.995 45.0097 181.74 45.1266 181.505L87.3953 95.5456V104.611L48.7154 183.264ZM95.0123 184.387C94.4808 184.386 93.9712 184.175 93.5954 183.799C93.2195 183.423 93.0082 182.914 93.0078 182.382V93.4212C94.3337 93.6563 95.6908 93.6563 97.0167 93.4212V182.384C97.0163 182.915 96.805 183.425 96.4292 183.801C96.0533 184.176 95.5437 184.388 95.0123 184.388V184.387ZM144.997 183.027C144.911 183.279 144.775 183.512 144.598 183.711C144.421 183.91 144.205 184.072 143.965 184.186C143.488 184.402 142.946 184.426 142.451 184.254C141.957 184.082 141.547 183.726 141.308 183.261L102.629 104.611V95.5456L144.9 181.51C145.015 181.744 145.084 181.998 145.101 182.258C145.117 182.518 145.082 182.779 144.997 183.025V183.027ZM95.0123 68.7454C92.2919 68.7501 89.6481 69.6465 87.486 71.2972C85.3239 72.9479 83.7627 75.2619 83.0416 77.8846L56.1961 84.383L47.3027 47.6659V47.6531V47.6387L46.3004 43.5004L147.844 18.9112L157.743 59.7761L104.143 72.7714C102.984 71.5038 101.573 70.4913 100.001 69.7982C98.4292 69.105 96.7302 68.7465 95.0123 68.7454ZM165.36 67.3745L152.659 14.9444C152.659 14.9156 152.659 14.8867 152.646 14.8578C152.634 14.829 152.626 14.8049 152.619 14.7777L151.141 8.68489L161.404 6.19967L175.624 64.8957L165.36 67.3745ZM169.737 16.7787C173.185 17.8668 176.293 19.8265 178.761 22.4682C181.229 25.1098 182.973 28.3439 183.824 31.8572C184.675 35.3705 184.605 39.044 183.619 42.522C182.634 46 180.767 49.1647 178.199 51.7096L169.737 16.7787Z" fill="#FAC55C"/>
</svg>
