<svg width="43" height="40" viewBox="0 0 43 40" fill="none" xmlns="http://www.w3.org/2000/svg">
<path d="M6.72095 21.8998H9.58141C12.7127 21.8998 15.5884 23.2887 17.2093 25.6998H22.9303C25.702 25.6998 28.6512 28.6381 28.6512 31.3998H15.3023" stroke="#FAC55C" stroke-width="2" stroke-miterlimit="10" stroke-linecap="round" stroke-linejoin="round"/>
<path d="M26.912 27.5998H36.2791C40.8873 27.5998 42 31.3998 42 31.3998L21.7832 38.7584C20.2128 39.1308 18.5699 39.0719 17.0301 38.5874L6.72095 34.2497" stroke="#FAC55C" stroke-width="2" stroke-miterlimit="10" stroke-linecap="round" stroke-linejoin="round"/>
<path d="M30.5581 19.9999C33.1911 19.9999 35.3255 17.8732 35.3255 15.2499C35.3255 12.6266 33.1911 10.4999 30.5581 10.4999C27.9251 10.4999 25.7906 12.6266 25.7906 15.2499C25.7906 17.8732 27.9251 19.9999 30.5581 19.9999Z" stroke="#FAC55C" stroke-width="2" stroke-miterlimit="10" stroke-linecap="round" stroke-linejoin="round"/>
<path d="M17.2093 10.4999C19.8423 10.4999 21.9768 8.37329 21.9768 5.74996C21.9768 3.12663 19.8423 1 17.2093 1C14.5764 1 12.4419 3.12663 12.4419 5.74996C12.4419 8.37329 14.5764 10.4999 17.2093 10.4999Z" stroke="#FAC55C" stroke-width="2" stroke-miterlimit="10" stroke-linecap="round" stroke-linejoin="round"/>
<path d="M6.72093 19.9998H1V35.1997H6.72093V19.9998Z" stroke="#FAC55C" stroke-width="2" stroke-miterlimit="10" stroke-linecap="round" stroke-linejoin="round"/>
</svg>
