<svg width="41" height="41" viewBox="0 0 41 41" fill="none" xmlns="http://www.w3.org/2000/svg">
<path d="M20.5 40C31.2696 40 40 31.2696 40 20.5C40 9.73045 31.2696 1 20.5 1C9.73045 1 1 9.73045 1 20.5C1 31.2696 9.73045 40 20.5 40Z" stroke="#FAC55C" stroke-width="2" stroke-miterlimit="10" stroke-linecap="round" stroke-linejoin="round"/>
<path d="M29.6 11.4L23.75 23.75L11.4 29.6L17.25 17.25L29.6 11.4Z" stroke="#FAC55C" stroke-width="2" stroke-miterlimit="10" stroke-linecap="round" stroke-linejoin="round"/>
<path d="M20.5 21.15C20.859 21.15 21.15 20.859 21.15 20.5C21.15 20.141 20.859 19.85 20.5 19.85C20.141 19.85 19.85 20.141 19.85 20.5C19.85 20.859 20.141 21.15 20.5 21.15Z" fill="#FAC55C" stroke="#FAC55C" stroke-width="2" stroke-miterlimit="10" stroke-linecap="round" stroke-linejoin="round"/>
</svg>
